<svg width="41" height="42" viewBox="0 0 41 42" fill="none" xmlns="http://www.w3.org/2000/svg">
<path fill-rule="evenodd" clip-rule="evenodd" d="M41 0C23.7537 1.90153 12.0969 6.64763 5.37315 14.4995C-0.849221 21.7674 -1.71677 31.8281 3.02924 41.4691H29.9698C27.0324 38.8648 24.7377 35.5958 23.29 31.9351C21.7527 28.0477 21.3507 24.1069 22.1583 20.8379C23.8701 13.9101 30.73 7.51543 41 3.25808V0ZM31.1248 24.5022V25.2394H24.8093V24.5022H31.1248ZM29.6207 23.4141H26.3152V17.6224H29.6207V23.4141ZM33.6907 14.6437H40.0062V15.3809H33.6907V14.6437ZM29.6207 16.5343H26.3152V14.8785C27.2463 13.6643 28.3529 12.4891 29.6207 11.3629V16.5343ZM38.5021 9.95105V13.5564H35.1957V9.95105H38.5021ZM38.5021 5.57128V8.86291H35.1957V7.34586C36.2406 6.72743 37.3445 6.1353 38.5021 5.57128ZM12.8024 18.4358C13.0951 17.8355 13.421 17.2398 13.772 16.6667C13.9278 16.411 14.259 16.3321 14.5115 16.4908C14.764 16.6486 14.8419 16.9841 14.6852 17.2398C14.353 17.7829 14.0433 18.3479 13.7657 18.9173C13.6726 19.1096 13.4819 19.2211 13.2841 19.2211C13.2044 19.2211 13.1229 19.203 13.0468 19.1649C12.7809 19.0325 12.6717 18.7051 12.8024 18.4358ZM11.1094 23.4059C11.2437 22.7612 11.4084 22.1192 11.5982 21.4971C11.6859 21.2097 11.9868 21.0492 12.2706 21.138C12.5535 21.2269 12.712 21.5316 12.6242 21.819C12.4443 22.4094 12.2885 23.0187 12.1613 23.6299C12.1076 23.8856 11.8847 24.0615 11.6358 24.0615C11.5991 24.0615 11.5624 24.0579 11.5248 24.0497C11.2347 23.989 11.0485 23.7006 11.1094 23.4059ZM11.2437 26.197C11.54 26.2142 11.7665 26.4718 11.7486 26.7719C11.7128 27.3822 11.7021 28.0088 11.7155 28.6335C11.7217 28.9346 11.4863 29.183 11.1899 29.1894C11.1855 29.1894 11.1819 29.1894 11.1774 29.1894C10.8864 29.1894 10.6474 28.9536 10.6411 28.6571C10.6268 28.0033 10.6393 27.3477 10.676 26.7084C10.6939 26.4083 10.9464 26.1807 11.2437 26.197ZM11.378 31.3747C11.6716 31.3303 11.9447 31.5352 11.9886 31.8318C12.0736 32.4121 12.1801 33.0042 12.3055 33.5909C12.3682 33.8847 12.1837 34.174 11.8936 34.2375C11.8552 34.2456 11.8175 34.2492 11.7799 34.2492C11.5319 34.2492 11.3099 34.0751 11.2553 33.8203C11.1255 33.211 11.0145 32.5953 10.9258 31.9923C10.882 31.6957 11.0843 31.4192 11.378 31.3747ZM15.7112 14.8196C15.4847 14.6255 15.4561 14.2828 15.6468 14.0533C15.7157 13.9708 15.7846 13.8892 15.8545 13.8076C16.2242 13.376 16.6191 12.9462 17.0273 12.5318C17.2359 12.3187 17.5761 12.3187 17.7865 12.5309C17.9969 12.743 17.9969 13.0876 17.7874 13.3007C17.3971 13.697 17.0202 14.1078 16.6665 14.5212C16.5994 14.5992 16.5331 14.6772 16.4687 14.7552C16.3621 14.883 16.2108 14.9483 16.0577 14.9483C15.9351 14.9474 15.8115 14.9057 15.7112 14.8196ZM13.1605 36.7592C13.3369 37.2979 13.5312 37.8465 13.7389 38.3878C13.8463 38.668 13.7093 38.9827 13.4327 39.0924C13.3691 39.1178 13.3029 39.1296 13.2384 39.1296C13.0235 39.1296 12.8203 38.9981 12.7379 38.7823C12.523 38.2228 12.3225 37.6578 12.1408 37.1011C12.0476 36.8154 12.2007 36.508 12.4819 36.4137C12.7639 36.3194 13.0674 36.4736 13.1605 36.7592ZM19.2817 11.1816C19.0964 10.9467 19.1349 10.6039 19.3668 10.4171C19.8798 10.0036 20.4214 9.59468 20.9774 9.20295C21.2209 9.03157 21.5558 9.09142 21.725 9.33806C21.8951 9.58471 21.8351 9.92385 21.5916 10.0952C21.0544 10.4743 20.5307 10.8687 20.0364 11.2677C19.9371 11.3475 19.8189 11.3865 19.7016 11.3865C19.544 11.3865 19.3873 11.3167 19.2817 11.1816ZM23.9409 8.49657C23.7546 8.49657 23.5729 8.39773 23.4744 8.22272C23.3267 7.96157 23.4162 7.62968 23.6741 7.48006C24.2659 7.13639 24.8881 6.79816 25.522 6.47172C25.787 6.3357 26.1102 6.4427 26.2445 6.7102C26.3788 6.97861 26.2731 7.30596 26.0081 7.44198C25.3904 7.75935 24.7842 8.09033 24.2068 8.42403C24.1235 8.4739 24.0322 8.49657 23.9409 8.49657ZM28.4863 6.2151C28.2777 6.2151 28.0799 6.09178 27.9921 5.88594C27.8748 5.61027 28.0011 5.28927 28.2732 5.17048C28.8534 4.91749 29.4542 4.66903 30.0576 4.43055C30.3342 4.32173 30.6458 4.45956 30.7532 4.73976C30.8607 5.01996 30.7237 5.33552 30.4479 5.44433C29.8552 5.67828 29.267 5.92221 28.6985 6.17067C28.6287 6.20059 28.5571 6.2151 28.4863 6.2151ZM32.7095 4.02612C32.6155 3.74139 32.7677 3.43308 33.0488 3.33787C33.6334 3.14019 34.2351 2.94614 34.8385 2.75934C35.1223 2.67139 35.4223 2.8337 35.5091 3.12115C35.5959 3.4086 35.4357 3.71237 35.1519 3.80033C34.5574 3.98441 33.9647 4.17574 33.389 4.36979C33.3326 4.38884 33.2753 4.3979 33.2189 4.3979C32.9942 4.3979 32.7847 4.25463 32.7095 4.02612Z" fill="url(#paint0_linear_5_16)"/>
<defs>
<linearGradient id="paint0_linear_5_16" x1="2.22073e-07" y1="-22.5375" x2="53.235" y2="-15.1934" gradientUnits="userSpaceOnUse">
<stop stop-color="#C39B47"/>
<stop offset="1" stop-color="#D3C676"/>
</linearGradient>
</defs>
</svg>
