<svg width="55" height="55" viewBox="0 0 55 55" fill="none" xmlns="http://www.w3.org/2000/svg">
<path d="M11.0368 6.32495H43.9632V9.5628H11.0368V6.32495Z" fill="url(#paint0_linear_5_33)"/>
<path d="M11.0368 31.8417H43.9632V35.079H11.0368V31.8417Z" fill="url(#paint1_linear_5_33)"/>
<path d="M11.0368 45.4377H43.9632V48.675H11.0368V45.4377Z" fill="url(#paint2_linear_5_33)"/>
<path d="M28.05 10.6628H37.8582V20.152H28.05V10.6628Z" fill="url(#paint3_linear_5_33)"/>
<path d="M17.1418 10.6628H26.95V20.152H17.1418V10.6628Z" fill="url(#paint4_linear_5_33)"/>
<path d="M17.1418 21.252H26.95V30.7417H17.1418V21.252Z" fill="url(#paint5_linear_5_33)"/>
<path d="M28.05 21.252H37.8582V30.7417H28.05V21.252Z" fill="url(#paint6_linear_5_33)"/>
<path d="M18.7907 46.9502C18.6106 46.9501 18.4341 46.8995 18.2813 46.8041C18.1285 46.7087 18.0056 46.5724 17.9265 46.4105C17.8473 46.2487 17.8152 46.0679 17.8337 45.8888C17.8522 45.7096 17.9206 45.5392 18.0312 45.397L18.0581 45.3624C18.3056 45.0439 18.4189 44.8987 18.4189 44.5044C18.4189 44.11 18.3056 43.9643 18.0581 43.6458C17.7347 43.23 17.2914 42.6602 17.2914 41.6053C17.2914 40.5504 17.7347 39.9812 18.0581 39.5659C18.3056 39.2469 18.4189 39.1017 18.4189 38.7074C18.4189 38.313 18.3056 38.1673 18.0581 37.8488C17.7347 37.433 17.2914 36.8632 17.2914 35.8083C17.2869 35.4451 17.3486 35.0841 17.4735 34.743C17.5158 34.6221 17.5818 34.511 17.6676 34.416C17.7534 34.3209 17.8572 34.244 17.9731 34.1896C18.089 34.1353 18.2146 34.1046 18.3425 34.0993C18.4704 34.0941 18.5981 34.1144 18.718 34.1591C18.838 34.2038 18.9478 34.272 19.0411 34.3597C19.1344 34.4473 19.2092 34.5527 19.2613 34.6697C19.3133 34.7866 19.3415 34.9128 19.3442 35.0408C19.3469 35.1688 19.324 35.296 19.2769 35.4151C19.2335 35.5415 19.213 35.6747 19.2164 35.8083C19.2164 36.2027 19.3297 36.3484 19.5772 36.6669C19.9012 37.0827 20.3439 37.6525 20.3439 38.7074C20.3439 39.7623 19.9006 40.3321 19.5772 40.7479C19.3297 41.0663 19.2164 41.2115 19.2164 41.6053C19.2164 41.9991 19.3297 42.1454 19.5778 42.4639C19.9012 42.8797 20.3439 43.4495 20.3439 44.5044C20.3439 45.5593 19.9006 46.1291 19.5772 46.5449L19.5514 46.5779C19.4615 46.6939 19.3462 46.7878 19.2143 46.8524C19.0824 46.9169 18.9376 46.9504 18.7907 46.9502Z" fill="url(#paint7_linear_5_33)"/>
<path d="M13.0025 46.9502C12.8225 46.9499 12.6462 46.8992 12.4935 46.8037C12.3408 46.7083 12.218 46.5719 12.1389 46.4102C12.0598 46.2485 12.0276 46.0678 12.046 45.8887C12.0644 45.7096 12.1327 45.5393 12.243 45.397L12.2699 45.3623C12.518 45.0439 12.6307 44.8987 12.6307 44.5043C12.6307 44.11 12.518 43.9642 12.2699 43.6458C11.9465 43.23 11.5032 42.6602 11.5032 41.6053C11.5032 40.5504 11.9465 39.9811 12.2699 39.5659C12.518 39.2469 12.6307 39.1017 12.6307 38.7073C12.6307 38.313 12.518 38.1672 12.2699 37.8488C11.9465 37.433 11.5032 36.8632 11.5032 35.8083C11.4988 35.4449 11.5605 35.0837 11.6853 34.7424C11.777 34.5067 11.9578 34.3165 12.1886 34.2131C12.4194 34.1096 12.6817 34.1012 12.9186 34.1896C13.1556 34.278 13.3483 34.4561 13.455 34.6854C13.5617 34.9147 13.5738 35.1768 13.4887 35.415C13.4453 35.5415 13.4248 35.6746 13.4282 35.8083C13.4282 36.2026 13.5415 36.3484 13.789 36.6668C14.113 37.0826 14.5557 37.6524 14.5557 38.7073C14.5557 39.7622 14.1157 40.332 13.789 40.7478C13.5415 41.0663 13.4282 41.2115 13.4282 41.6053C13.4282 41.9991 13.5415 42.1454 13.7896 42.4638C14.113 42.8796 14.5557 43.4494 14.5557 44.5043C14.5557 45.5592 14.1157 46.129 13.789 46.5443L13.7632 46.5778C13.6733 46.6939 13.558 46.7878 13.4261 46.8523C13.2943 46.9169 13.1494 46.9503 13.0025 46.9502Z" fill="url(#paint8_linear_5_33)"/>
<path d="M24.579 46.9502C24.3988 46.9501 24.2223 46.8995 24.0695 46.8041C23.9168 46.7087 23.7938 46.5724 23.7147 46.4105C23.6355 46.2487 23.6034 46.0679 23.6219 45.8888C23.6404 45.7096 23.7089 45.5392 23.8194 45.397L23.8464 45.3624C24.0939 45.0439 24.2072 44.8987 24.2072 44.5044C24.2072 44.11 24.0939 43.9643 23.8464 43.6458C23.523 43.23 23.0797 42.6602 23.0797 41.6053C23.0797 40.5504 23.523 39.9812 23.8464 39.5659C24.0939 39.2469 24.2072 39.1017 24.2072 38.7074C24.2072 38.313 24.0939 38.1673 23.8464 37.8488C23.523 37.433 23.0797 36.8632 23.0797 35.8083C23.0751 35.4451 23.1368 35.0841 23.2617 34.743C23.304 34.6221 23.37 34.511 23.4558 34.416C23.5416 34.3209 23.6455 34.244 23.7614 34.1896C23.8772 34.1353 24.0028 34.1046 24.1307 34.0993C24.2586 34.0941 24.3863 34.1144 24.5063 34.1591C24.6262 34.2038 24.736 34.272 24.8293 34.3597C24.9226 34.4473 24.9974 34.5527 25.0495 34.6697C25.1015 34.7866 25.1297 34.9128 25.1324 35.0408C25.1351 35.1688 25.1122 35.296 25.0652 35.4151C25.0217 35.5415 25.0012 35.6747 25.0047 35.8083C25.0047 36.2027 25.118 36.3484 25.3655 36.6669C25.6894 37.0827 26.1322 37.6525 26.1322 38.7074C26.1322 39.7623 25.6889 40.3321 25.3655 40.7479C25.118 41.0663 25.0047 41.2115 25.0047 41.6053C25.0047 41.9991 25.118 42.1454 25.3655 42.4639C25.6894 42.8797 26.1322 43.4495 26.1322 44.5044C26.1322 45.5593 25.6889 46.1291 25.3655 46.5449L25.3396 46.5779C25.2496 46.6938 25.1343 46.7877 25.0025 46.8522C24.8706 46.9168 24.7257 46.9503 24.579 46.9502Z" fill="url(#paint9_linear_5_33)"/>
<path d="M30.3671 46.9503C30.187 46.9502 30.0105 46.8996 29.8577 46.8042C29.705 46.7088 29.582 46.5724 29.5029 46.4106C29.4237 46.2488 29.3916 46.068 29.4101 45.8888C29.4286 45.7097 29.4971 45.5393 29.6076 45.3971L29.6345 45.3624C29.882 45.044 29.9953 44.8988 29.9953 44.5044C29.9953 44.1101 29.882 43.9643 29.6345 43.6459C29.3106 43.2301 28.8678 42.6603 28.8678 41.6054C28.8678 40.5505 29.3078 39.9812 29.6345 39.566C29.882 39.247 29.9953 39.1018 29.9953 38.7074C29.9953 38.3131 29.882 38.1673 29.6345 37.8489C29.3106 37.4331 28.8678 36.8633 28.8678 35.8084C28.8635 35.4452 28.925 35.0842 29.0493 34.743C29.1385 34.5036 29.3191 34.3093 29.5514 34.203C29.7837 34.0968 30.0488 34.0871 30.2882 34.1762C30.5277 34.2654 30.7219 34.446 30.8282 34.6783C30.9345 34.9106 30.9441 35.1757 30.855 35.4151C30.8116 35.5415 30.7911 35.6747 30.7945 35.8084C30.7945 36.2027 30.9078 36.3485 31.1553 36.6669C31.4787 37.0827 31.922 37.6525 31.922 38.7074C31.922 39.7623 31.4787 40.3321 31.1553 40.7479C30.9073 41.0664 30.7945 41.2116 30.7945 41.6054C30.7945 41.9992 30.9078 42.1455 31.1553 42.4639C31.4787 42.8797 31.922 43.4495 31.922 44.5044C31.922 45.5593 31.4787 46.1291 31.1553 46.5449L31.1294 46.5779C31.0393 46.6941 30.9237 46.7881 30.7916 46.8527C30.6594 46.9172 30.5142 46.9506 30.3671 46.9503Z" fill="url(#paint10_linear_5_33)"/>
<path d="M36.1548 46.9502C35.9747 46.95 35.7983 46.8993 35.6456 46.8039C35.4929 46.7084 35.37 46.5721 35.2909 46.4103C35.2119 46.2485 35.1798 46.0677 35.1983 45.8886C35.2169 45.7095 35.2853 45.5392 35.3958 45.397L35.4227 45.3623C35.6702 45.0439 35.7835 44.8987 35.7835 44.5043C35.7835 44.11 35.6702 43.9642 35.4227 43.6458C35.0988 43.23 34.656 42.6602 34.656 41.6053C34.656 40.5504 35.096 39.9811 35.4222 39.5659C35.6702 39.2469 35.7835 39.1017 35.7835 38.7073C35.7835 38.313 35.6702 38.1672 35.4227 37.8488C35.0988 37.433 34.656 36.8632 34.656 35.8083C34.6516 35.4449 34.7133 35.0837 34.8381 34.7424C34.9298 34.5067 35.1106 34.3165 35.3414 34.2131C35.5722 34.1096 35.8345 34.1012 36.0714 34.1896C36.3084 34.278 36.5011 34.4561 36.6078 34.6854C36.7145 34.9147 36.7266 35.1768 36.6416 35.415C36.5981 35.5415 36.5776 35.6746 36.581 35.8083C36.581 36.2026 36.6943 36.3484 36.9418 36.6668C37.2652 37.0826 37.7085 37.6524 37.7085 38.7073C37.7085 39.7622 37.2652 40.332 36.9418 40.7478C36.6938 41.0663 36.581 41.2115 36.581 41.6053C36.581 41.9991 36.6943 42.1454 36.9418 42.4638C37.2652 42.8796 37.7085 43.4494 37.7085 44.5043C37.7085 45.5592 37.2652 46.129 36.9418 46.5443L36.916 46.5778C36.826 46.6939 36.7106 46.7878 36.5786 46.8523C36.4467 46.9169 36.3017 46.9504 36.1548 46.9502Z" fill="url(#paint11_linear_5_33)"/>
<path d="M41.943 46.9502C41.763 46.9499 41.5866 46.8992 41.4339 46.8037C41.2813 46.7083 41.1584 46.5719 41.0793 46.4102C41.0003 46.2485 40.9681 46.0678 40.9865 45.8887C41.0049 45.7096 41.0731 45.5393 41.1834 45.397L41.2109 45.3623C41.4584 45.0439 41.5717 44.8987 41.5717 44.5043C41.5717 44.11 41.4584 43.9642 41.2109 43.6458C40.887 43.23 40.4442 42.6602 40.4442 41.6053C40.4442 40.5504 40.8842 39.9811 41.2104 39.5659C41.4584 39.2469 41.5717 39.1017 41.5717 38.7073C41.5717 38.313 41.4584 38.1672 41.2109 37.8488C40.887 37.433 40.4442 36.8632 40.4442 35.8083C40.4398 35.4449 40.5015 35.0837 40.6263 34.7424C40.718 34.5067 40.8988 34.3165 41.1296 34.2131C41.3604 34.1096 41.6227 34.1012 41.8596 34.1896C42.0966 34.278 42.2893 34.4561 42.396 34.6854C42.5026 34.9147 42.5148 35.1768 42.4297 35.415C42.3863 35.5415 42.3658 35.6746 42.3692 35.8083C42.3692 36.2026 42.4792 36.3484 42.73 36.6668C43.0534 37.0826 43.4967 37.6524 43.4967 38.7073C43.4967 39.7622 43.0534 40.332 42.73 40.7478C42.482 41.0663 42.3692 41.2115 42.3692 41.6053C42.3692 41.9991 42.4792 42.1454 42.73 42.4638C43.0534 42.8796 43.4967 43.4494 43.4967 44.5043C43.4967 45.5592 43.0534 46.129 42.73 46.5443L42.7042 46.5778C42.6142 46.6939 42.4987 46.7878 42.3668 46.8523C42.2349 46.9169 42.0899 46.9504 41.943 46.9502Z" fill="url(#paint12_linear_5_33)"/>
<defs>
<linearGradient id="paint0_linear_5_33" x1="11.0369" y1="4.56525" x2="25.494" y2="25.0793" gradientUnits="userSpaceOnUse">
<stop stop-color="#C39B47"/>
<stop offset="1" stop-color="#D3C676"/>
</linearGradient>
<linearGradient id="paint1_linear_5_33" x1="11.0369" y1="30.0823" x2="25.4907" y2="50.5951" gradientUnits="userSpaceOnUse">
<stop stop-color="#C39B47"/>
<stop offset="1" stop-color="#D3C676"/>
</linearGradient>
<linearGradient id="paint2_linear_5_33" x1="11.0369" y1="43.6783" x2="25.4907" y2="64.1912" gradientUnits="userSpaceOnUse">
<stop stop-color="#C39B47"/>
<stop offset="1" stop-color="#D3C676"/>
</linearGradient>
<linearGradient id="paint3_linear_5_33" x1="28.05" y1="5.5057" x2="40.763" y2="7.33923" gradientUnits="userSpaceOnUse">
<stop stop-color="#C39B47"/>
<stop offset="1" stop-color="#D3C676"/>
</linearGradient>
<linearGradient id="paint4_linear_5_33" x1="17.1418" y1="5.5057" x2="29.8548" y2="7.33923" gradientUnits="userSpaceOnUse">
<stop stop-color="#C39B47"/>
<stop offset="1" stop-color="#D3C676"/>
</linearGradient>
<linearGradient id="paint5_linear_5_33" x1="17.1418" y1="16.0945" x2="29.8548" y2="17.9279" gradientUnits="userSpaceOnUse">
<stop stop-color="#C39B47"/>
<stop offset="1" stop-color="#D3C676"/>
</linearGradient>
<linearGradient id="paint6_linear_5_33" x1="28.05" y1="16.0945" x2="40.763" y2="17.9279" gradientUnits="userSpaceOnUse">
<stop stop-color="#C39B47"/>
<stop offset="1" stop-color="#D3C676"/>
</linearGradient>
<linearGradient id="paint7_linear_5_33" x1="17.2912" y1="27.1139" x2="21.3259" y2="27.2476" gradientUnits="userSpaceOnUse">
<stop stop-color="#C39B47"/>
<stop offset="1" stop-color="#D3C676"/>
</linearGradient>
<linearGradient id="paint8_linear_5_33" x1="11.503" y1="27.1608" x2="15.5377" y2="27.2949" gradientUnits="userSpaceOnUse">
<stop stop-color="#C39B47"/>
<stop offset="1" stop-color="#D3C676"/>
</linearGradient>
<linearGradient id="paint9_linear_5_33" x1="23.0794" y1="27.1139" x2="27.1141" y2="27.2476" gradientUnits="userSpaceOnUse">
<stop stop-color="#C39B47"/>
<stop offset="1" stop-color="#D3C676"/>
</linearGradient>
<linearGradient id="paint10_linear_5_33" x1="28.8676" y1="27.1404" x2="32.9045" y2="27.2745" gradientUnits="userSpaceOnUse">
<stop stop-color="#C39B47"/>
<stop offset="1" stop-color="#D3C676"/>
</linearGradient>
<linearGradient id="paint11_linear_5_33" x1="34.6558" y1="27.1608" x2="38.6905" y2="27.2949" gradientUnits="userSpaceOnUse">
<stop stop-color="#C39B47"/>
<stop offset="1" stop-color="#D3C676"/>
</linearGradient>
<linearGradient id="paint12_linear_5_33" x1="40.444" y1="27.1608" x2="44.4787" y2="27.2949" gradientUnits="userSpaceOnUse">
<stop stop-color="#C39B47"/>
<stop offset="1" stop-color="#D3C676"/>
</linearGradient>
</defs>
</svg>
