<svg width="51" height="52" viewBox="0 0 51 52" fill="none" xmlns="http://www.w3.org/2000/svg">
<path fill-rule="evenodd" clip-rule="evenodd" d="M42.4873 27.0752V22.1757H44.6686V27.0752H42.4873ZM48.0005 18.7367V16.9844H38.3228V18.7367C38.3228 19.7005 39.1013 20.489 40.0528 20.489H46.2704C47.222 20.489 48.0005 19.7005 48.0005 18.7367ZM36.6175 13.7245V10.8248C36.6175 9.95939 37.3165 9.25141 38.1709 9.25141H48.1525C49.0069 9.25141 49.7059 9.95939 49.7059 10.8248V13.7245C49.7059 14.5898 49.0069 15.2978 48.1525 15.2978H38.1709C37.3166 15.2978 36.6175 14.5898 36.6175 13.7245ZM46.5144 13.1179H47.845V11.4312H46.5144V13.1179ZM43.8357 13.1179H45.1663V11.4312H43.8357V13.1179ZM41.1571 13.1179H42.4876V11.4312H41.1571V13.1179ZM38.4784 13.1179H39.809V11.4312H38.4784V13.1179ZM48.0005 7.56473C48.0005 5.55538 47.9344 4.50605 45.7009 3.77984C44.9929 3.55351 44.4249 3.29903 43.9943 3.01714V0.843337C43.9943 0.377604 43.6215 0 43.1617 0C42.7019 0 42.329 0.377604 42.329 0.843337V3.01714C41.8984 3.29903 41.3305 3.5534 40.6225 3.77984C38.3889 4.50605 38.3229 5.55538 38.3229 7.56473H48.0005ZM26.9278 33.4362H33.5869V40.001L37.9401 39.6228V28.762H22.5746V40.9575L26.9277 40.5794L26.9278 33.4362ZM30.6738 27.0753H40.822V24.8665H22.5747V27.0753H30.6738ZM4.29413 37.2055V42.5456L6.46248 42.3572L4.29413 37.2055ZM11.4701 35.5588L4.29413 34.2763V20.7382L12.1583 23.7571V36.371L11.4701 35.5588ZM10.106 31.2385H6.34591V32.9251H10.106V31.2385ZM10.106 27.8898H6.34591V29.5765H10.106V27.8898ZM10.106 24.541H6.34591V26.2277H10.106V24.541ZM16.4918 41.486L13.8236 38.3367V16.1959H20.9094V41.1022L16.4918 41.486ZM15.9937 24.1695H18.7393V21.5514H15.9937V24.1695ZM15.9937 29.2173H18.7393V26.5992H15.9937V29.2173ZM15.9937 34.3063H18.7393V31.6882H15.9937V34.3063ZM15.9937 39.3541H18.7393V36.736H15.9937V39.3541ZM5.71007 36.2496L8.21669 42.2049L14.4389 41.6643L10.5903 37.1218L5.71007 36.2496ZM49.479 44.0895C49.2426 43.8693 48.9777 43.6538 48.6818 43.4455C46.3167 41.7807 43.7892 41.0046 40.9773 41.084L41.7724 44.0896L49.479 44.0895ZM50.7186 45.7761H41.1346V45.7752C40.767 45.7754 40.4306 45.5269 40.3312 45.1503L39.3258 41.3504L39.2877 41.2061L0.832033 44.5467C0.390618 44.585 0.0468336 44.9295 0.0043679 45.3763C-0.0382019 45.8228 0.234078 46.2274 0.660088 46.3506C8.03392 48.4827 14.5838 49.7368 22.5198 49.6791L23.3086 49.6734C23.2939 47.6064 24.9458 45.9092 26.9865 45.8943L34.9271 45.8365C36.9678 45.8217 38.6437 47.4947 38.6582 49.5617C38.6728 51.6286 48.212 49.4923 48.212 49.4923C50.4825 49.4758 51.5515 47.6985 50.7186 45.7761ZM34.9393 47.5305L26.9987 47.5881C25.8811 47.5963 24.9733 48.5291 24.9813 49.661C24.9893 50.7929 25.9103 51.7124 27.0278 51.7043L34.9684 51.6465C36.0861 51.6384 36.9939 50.7056 36.9858 49.5737C36.9778 48.4417 36.0568 47.5224 34.9393 47.5305ZM39.6056 28.762H41.6572H46.6913V40.4256C45.9757 40.131 45.2439 39.8991 44.4955 39.7297H44.5213V37.1116H41.7757V39.3909C41.1889 39.3745 40.5925 39.3925 39.9864 39.4451L39.6056 39.4782V28.762ZM41.7756 34.6819H44.5212V32.0638H41.7756V34.6819Z" fill="url(#paint0_linear_5_13)"/>
<defs>
<linearGradient id="paint0_linear_5_13" x1="2.76237e-07" y1="-28.1002" x2="66.2249" y2="-18.9854" gradientUnits="userSpaceOnUse">
<stop stop-color="#C39B47"/>
<stop offset="1" stop-color="#D3C676"/>
</linearGradient>
</defs>
</svg>
