<svg width="34" height="35" viewBox="0 0 34 35" fill="none" xmlns="http://www.w3.org/2000/svg">
<path d="M24.2443 5.39276C23.7604 3.45989 22.6153 1.877 21.0201 0.935654C17.3009 -1.25905 12.1144 0.539746 9.45866 4.94542C8.03237 7.3115 7.56296 10.0603 8.17047 12.4872C8.60107 14.207 9.55604 15.6485 10.885 16.6088L4.29593 27.6419L3.22275 27.0026L0.245935 31.9885C-0.246372 32.8132 0.0235936 33.8807 0.8489 34.3724C0.8489 34.3724 2.14002 35.3355 3.30141 33.8112L6.27917 28.8235L5.31555 28.2494L11.9052 17.2151C12.8443 17.6645 13.8597 17.8799 14.8945 17.8799C17.9031 17.8799 21.069 16.0653 22.9562 12.9345C24.3824 10.5685 24.8519 7.81956 24.2443 5.39276ZM22.1445 11.9655L19.8635 10.6195L21.3548 8.14553L23.1556 9.2081C22.9704 10.1474 22.6305 11.0813 22.1445 11.9655ZM17.2463 1.19585C17.3333 1.19228 19.2333 1.37251 20.02 1.75281L17.9895 5.12149L15.6958 3.76803L17.2463 1.19585ZM14.9291 3.31563L13.4645 2.45143C14.3076 1.90904 15.2104 1.53215 16.1203 1.33951L14.9291 3.31563ZM17.5278 5.88736L16.0365 8.36136L13.7427 7.0079L15.234 4.5339L17.5278 5.88736ZM15.5748 9.12731L13.6782 12.2736L11.3846 10.9202L13.2812 7.77385L15.5748 9.12731ZM16.3415 9.57971L18.6351 10.9332L16.7386 14.0795L14.4448 12.726L16.3415 9.57971ZM16.8031 8.81375L18.2944 6.33976L20.5881 7.69322L19.0968 10.1672L16.8031 8.81375ZM23.2903 8.24936L21.8165 7.37973L23.0156 5.3906C23.0445 5.48781 23.3643 7.37408 23.2903 8.24936ZM22.6042 4.34855L21.0498 6.92734L18.7561 5.57388L20.7867 2.20506C21.5509 2.74351 22.17 3.47632 22.6042 4.34855ZM12.6741 3.0234L14.4674 4.08159L12.9761 6.55558L10.6963 5.21037C11.2618 4.35531 11.9348 3.62132 12.6741 3.0234ZM10.2358 5.97692L12.5144 7.32146L10.6178 10.4678L9.12808 9.58877C9.23742 8.36775 9.61203 7.13113 10.2358 5.97692ZM9.0991 10.61L10.1562 11.2338L9.3993 12.4894C9.37031 12.3922 9.11752 11.1497 9.0991 10.61ZM9.81052 13.5314L10.9228 11.6861L13.2165 13.0396L11.628 15.6748C10.8639 15.1364 10.2448 14.4037 9.81052 13.5314ZM12.3948 16.1271L13.9832 13.492L16.2768 14.8454L15.1685 16.684C15.0815 16.6875 13.1815 16.5074 12.3948 16.1271ZM17.0436 15.2977L18.0901 15.9153C17.5051 16.2022 16.9013 16.412 16.2945 16.5404L17.0436 15.2977ZM18.9863 15.4057L17.5052 14.5318L19.4018 11.3855L21.6788 12.7291C20.9327 13.8399 20.0042 14.7438 18.9863 15.4057Z" fill="#222222"/>
<path d="M25.9705 29.3132H29.6364V30.7593H25.9705V29.3132Z" fill="#222222"/>
<path d="M25.9705 32.9317C25.9705 33.9521 26.7928 34.7823 27.8034 34.7823C28.8141 34.7823 29.6364 33.9521 29.6364 32.9317V31.7329H25.9705V32.9317Z" fill="#222222"/>
<path d="M25.2995 19.1794L23.8234 18.3557L22.4409 19.0968L24.1541 23.7357H26.0591L25.2995 19.1794Z" fill="#222222"/>
<path d="M26.2213 24.7095H24.5136L25.8543 28.3398H26.8266L26.2213 24.7095Z" fill="#222222"/>
<path d="M28.5698 23.7356L29.3361 19.1391L27.8035 18.3542L26.2707 19.1391L27.0369 23.7356H28.5698Z" fill="#222222"/>
<path d="M28.4075 24.7095H27.1992L27.8034 28.3336L28.4075 24.7095Z" fill="#222222"/>
<path d="M31.881 18.3467L30.3063 19.1852L29.5477 23.7357H31.6071L33.4613 19.1088L31.881 18.3467Z" fill="#222222"/>
<path d="M28.7802 28.3398H29.7621L31.217 24.7095H29.3854L28.7802 28.3398Z" fill="#222222"/>
</svg>
