<svg width="39" height="39" viewBox="0 0 39 39" fill="none" xmlns="http://www.w3.org/2000/svg">
<g clip-path="url(#clip0_1_278)">
<path d="M38.7302 27.7471C38.5611 27.6246 38.343 27.5916 38.1453 27.6589L36.2946 28.2749H34.0691L30.5176 24.7228L29.5699 17.1256C29.3471 15.3241 27.8151 13.9721 26 13.9749H22.4034C22.2089 13.709 22.1025 13.3881 22.1 13.0583V11.6739C22.9265 10.9366 23.399 9.8823 23.4 8.77495V6.17495C23.3994 5.05554 22.9163 3.99104 22.0746 3.25312C22.0898 3.14426 22.0984 3.03477 22.1 2.92495C22.1 1.48911 20.9358 0.324951 19.5 0.324951C18.0642 0.324951 16.9 1.48911 16.9 2.92495C16.9019 3.03381 16.9102 3.14236 16.9254 3.24995C16.0827 3.9885 15.5997 5.05459 15.6 6.17495V8.77495C15.601 9.8823 16.0739 10.9366 16.9 11.6739V13.0583C16.8975 13.3881 16.7911 13.709 16.5966 13.9749H13C11.1852 13.9721 9.6532 15.3238 9.43009 17.125L8.48238 24.7228L4.93087 28.2749H2.70538L0.855355 27.6589C0.657626 27.5916 0.439584 27.6246 0.270419 27.7471C0.100619 27.8693 8.60266e-06 28.0658 8.60266e-06 28.2749V30.8749C-0.00126093 31.1225 0.13807 31.3494 0.359603 31.4599L1.26414 31.915C0.713168 32.4216 0.319296 33.0757 0.130135 33.7999C0.109823 33.8739 0.0863367 33.9463 0.0714197 34.0243C0.0507898 34.1335 0.0371424 34.2421 0.0193689 34.3779C0.00794317 34.4588 0.0038172 34.5404 0.00730841 34.6223V34.6658C0.00730841 34.7023 0.0019129 34.7378 0.0019129 34.7749C0.0019129 34.8302 0.00794317 34.8841 0.0104822 34.9387C0.0130213 34.9933 0.0104822 35.0304 0.0168299 35.0758C0.0241297 35.165 0.0352381 35.2526 0.047616 35.3399C0.0539636 35.3815 0.0590417 35.423 0.0669764 35.464C0.0837976 35.5589 0.104745 35.6512 0.128866 35.7436C0.137118 35.776 0.144418 35.8083 0.153939 35.841C0.181869 35.9404 0.215194 36.0359 0.251058 36.134C0.26058 36.1587 0.269149 36.1841 0.278988 36.2095C0.318661 36.3089 0.362777 36.4044 0.408798 36.5015C0.419906 36.5234 0.429745 36.5463 0.441488 36.5663C0.489413 36.6592 0.542733 36.7497 0.597958 36.8379C0.613509 36.8621 0.627157 36.8874 0.643026 36.9116C0.695394 36.9922 0.753475 37.0687 0.811874 37.1442C0.83536 37.1747 0.85599 37.2093 0.880746 37.2366C0.925497 37.2918 0.974374 37.3426 1.02166 37.3953C1.06927 37.4476 1.09784 37.4848 1.14005 37.5251C1.20067 37.5863 1.26097 37.6403 1.32159 37.6942L1.4203 37.7812C1.43394 37.7929 1.45077 37.8006 1.46441 37.8117C1.60565 37.9243 1.75482 38.0268 1.91034 38.1186C1.94303 38.1379 1.9754 38.1595 2.00714 38.1776C2.1744 38.2703 2.34832 38.3506 2.52733 38.4175C2.56034 38.4299 2.59207 38.4423 2.62667 38.454C2.8117 38.5185 3.0015 38.5686 3.19415 38.6042C3.22335 38.6092 3.25318 38.6124 3.28238 38.6178C3.48646 38.653 3.69307 38.6721 3.90001 38.6749H35.1C35.2358 38.6746 35.3717 38.6676 35.5069 38.6534C35.5161 38.6534 35.5243 38.6534 35.5329 38.6496C35.6589 38.6353 35.784 38.6159 35.9062 38.5905L35.9442 38.58C36.0614 38.554 36.1778 38.5242 36.2908 38.4877C36.3149 38.4801 36.3375 38.4696 36.361 38.4617C36.4613 38.4274 36.56 38.3909 36.6561 38.3487C36.6945 38.3325 36.7317 38.3122 36.7697 38.2941C36.8472 38.257 36.9253 38.2198 36.9999 38.1776C37.0506 38.1497 37.0995 38.1179 37.1487 38.0875C37.1982 38.0567 37.2658 38.0151 37.3223 37.9754C37.3788 37.9358 37.4347 37.8929 37.4902 37.8501C37.535 37.8158 37.5797 37.7806 37.62 37.7434C37.6784 37.6942 37.7346 37.6428 37.7898 37.5895C37.8273 37.5539 37.8644 37.5174 37.9009 37.4803C37.9276 37.4517 37.9574 37.427 37.9834 37.3978C38.0094 37.3686 38.0323 37.3365 38.0574 37.3073C38.0926 37.267 38.1224 37.2255 38.1583 37.1839C38.2043 37.1255 38.2494 37.0661 38.2922 37.0052C38.3271 36.955 38.3605 36.9024 38.3935 36.8503C38.4268 36.7983 38.4617 36.7424 38.4931 36.6865C38.5328 36.617 38.5684 36.545 38.6036 36.472C38.6229 36.431 38.6445 36.3907 38.6626 36.3492C38.7048 36.2543 38.742 36.1543 38.7766 36.0575C38.7842 36.0346 38.7934 36.0131 38.801 35.9924C38.8391 35.875 38.8721 35.755 38.9 35.6322L38.9051 35.6122C38.9324 35.4862 38.954 35.358 38.9702 35.2278V35.2123C38.9832 35.0999 38.9889 34.9851 38.9914 34.8692C38.9914 34.8457 38.9914 34.8232 38.9914 34.7997C38.9914 34.7918 38.9914 34.7848 38.9914 34.7768C38.9914 34.6858 38.9838 34.5963 38.9778 34.5064C38.9778 34.4693 38.9778 34.4331 38.9733 34.396V34.3868C38.9689 34.3439 38.9603 34.303 38.9546 34.2608C38.9435 34.1783 38.9337 34.0964 38.9168 34.0158C38.7543 33.2058 38.3379 32.4688 37.7286 31.9112L38.6334 31.4561C38.8562 31.3482 38.9984 31.1228 39 30.8749V28.2749C39.0003 28.0658 38.8997 27.8693 38.7302 27.7471ZM19.5 11.3749C18.0642 11.3749 16.9 10.2108 16.9 8.77495V7.01601C17.1999 6.49678 17.7538 6.17622 18.3533 6.17495H20.6467C21.2462 6.17622 21.8001 6.49678 22.1 7.01601V8.77495C22.1 10.2108 20.9358 11.3749 19.5 11.3749ZM19.5 3.57495C20.535 3.5759 21.4709 4.19067 21.8829 5.14028C21.4944 4.96509 21.073 4.87463 20.6467 4.87495H18.3533C17.9277 4.87495 17.5065 4.96509 17.1184 5.14028C17.5303 4.19099 18.4653 3.57654 19.5 3.57495ZM19.5 1.62495C20.0408 1.62686 20.5242 1.96328 20.7137 2.46982C19.9256 2.20925 19.0744 2.20925 18.2863 2.46982C18.4758 1.96328 18.9592 1.62686 19.5 1.62495ZM19.5 12.6749C19.9431 12.6737 20.383 12.5969 20.8 12.4474V13.0583C20.8022 13.7201 21.0317 14.3612 21.45 14.8738V15.2749C21.4491 15.3962 21.437 15.5168 21.4135 15.6358C21.4084 15.6631 21.4011 15.6904 21.3948 15.7171C21.3761 15.7955 21.3519 15.8729 21.3234 15.9484C21.3011 16.0049 21.2783 16.0608 21.2529 16.1135C21.2278 16.1662 21.2043 16.2065 21.1777 16.2512C21.0977 16.3928 21.0003 16.5238 20.8879 16.6413C20.8774 16.6524 20.8663 16.6619 20.8552 16.6724C20.7413 16.7809 20.6147 16.8746 20.4775 16.952C20.4283 16.9812 20.3788 17.0098 20.3262 17.0345C20.2839 17.0545 20.2417 17.0729 20.196 17.0897C20.1243 17.1174 20.0507 17.1402 19.9758 17.1586C19.9155 17.1729 19.8548 17.1859 19.7939 17.1951C19.7326 17.204 19.6711 17.21 19.6085 17.2138C19.5356 17.2176 19.4626 17.2176 19.3896 17.2138C19.3023 17.2113 19.2153 17.2027 19.1296 17.1878C19.1166 17.1878 19.1036 17.1821 19.0906 17.1802C19.0776 17.1783 19.0744 17.1754 19.0652 17.1735C18.9722 17.1526 18.8814 17.1243 18.7929 17.0891L18.77 17.0805L18.7488 17.0717C18.0112 16.7241 17.5433 15.9795 17.55 15.1645V14.8738C17.9683 14.3612 18.1981 13.7201 18.2 13.0583V12.4474C18.617 12.5969 19.0569 12.6737 19.5 12.6749ZM14.8069 15.2749H16.25C16.25 15.3778 16.271 15.4752 16.2805 15.5752C16.2846 15.6098 16.2859 15.6441 16.2909 15.678C16.435 16.8438 17.1977 17.8404 18.2851 18.2844L18.3165 18.2974C18.393 18.3253 18.4698 18.3526 18.5536 18.3805C18.6247 18.4028 18.6967 18.4208 18.7694 18.4351C18.8078 18.4437 18.8456 18.4554 18.8846 18.4624C18.9849 18.485 19.0865 18.5008 19.1887 18.51C19.2867 18.5186 19.3835 18.523 19.4832 18.523H19.5C19.5235 18.523 19.5448 18.5164 19.5651 18.5157C19.7358 18.5119 19.9063 18.4948 20.0745 18.4646C20.1395 18.4529 20.2002 18.4373 20.263 18.4221C20.3366 18.4047 20.4093 18.3948 20.4836 18.3729C20.5407 18.3532 20.5874 18.3253 20.6432 18.304C20.7254 18.2726 20.8044 18.239 20.8832 18.2006C20.9333 18.1771 20.9923 18.1596 21.0393 18.1355C21.1041 18.0993 21.1691 18.053 21.2342 18.0114C21.2732 17.9867 21.3123 17.9648 21.35 17.9387C21.662 17.7213 21.9331 17.4506 22.1514 17.1393C22.1838 17.0923 22.2124 17.0437 22.2425 16.9955C22.2819 16.9339 22.3257 16.8758 22.3606 16.8101C22.3866 16.7609 22.399 16.714 22.4225 16.6654C22.4634 16.5788 22.4999 16.4918 22.5335 16.4013C22.5529 16.3493 22.5831 16.2966 22.5986 16.2442C22.6215 16.1731 22.6323 16.0986 22.6494 16.0256C22.6618 15.9738 22.6754 15.9224 22.6856 15.8697C22.7252 15.6739 22.7468 15.4749 22.75 15.2749H24.1931L24.9599 18.3507C25.1948 19.279 25.1285 20.2579 24.7701 21.1459L23.4454 24.4606C22.963 25.6673 23.0195 27.0229 23.6009 28.1851L24.9482 30.8749H14.0518L15.3978 28.182C15.9793 27.0197 16.0358 25.6642 15.5534 24.4575L14.2286 21.1424C13.8703 20.2547 13.8036 19.2759 14.0382 18.3475L14.8069 15.2749ZM23.2499 33.215L19.859 34.0221C19.1969 32.9557 17.8648 32.5187 16.6997 32.9855L15.9336 33.2924C15.8768 33.2569 15.8149 33.2306 15.7501 33.2144L11.3874 32.1749H27.6139L23.2499 33.215ZM13.186 26.5493L13.7182 23.3707L14.3454 24.9399C14.6904 25.8019 14.6504 26.7702 14.2349 27.6008L12.5982 30.8749H8.19769L11.6578 28.8002C12.4728 28.3105 13.0317 27.4875 13.186 26.5493ZM26.4018 30.8749L24.7651 27.6008C24.3496 26.7702 24.3096 25.8019 24.6546 24.9399L25.3195 23.2778L25.8213 26.0323C25.9651 26.8794 26.4459 27.6322 27.1537 28.1188L31.0889 30.8749H26.4018ZM2.1033 30.8749L1.30001 30.4731V29.1773L2.39466 29.5413C2.46068 29.5635 2.53018 29.5749 2.60001 29.5749H5.20001C5.37235 29.5749 5.5377 29.5064 5.65958 29.3845L9.55958 25.4845C9.66177 25.3823 9.72684 25.249 9.74493 25.1056L10.7199 17.2852C10.7904 16.7289 11.0611 16.2169 11.4816 15.8456C11.9009 15.4759 12.4411 15.2727 13 15.2749H13.4675L12.7766 18.0362C12.5401 18.9918 12.5506 19.9919 12.807 20.9425L11.9034 26.3373C11.8117 26.8997 11.4769 27.3929 10.9881 27.6862L5.67005 30.8749H2.1033ZM3.40997 37.3254C3.363 37.3165 3.31888 37.3016 3.27349 37.2899C3.15765 37.2626 3.04371 37.2274 2.93294 37.1839C2.89517 37.169 2.85994 37.1515 2.82376 37.1344C2.70887 37.083 2.59842 37.023 2.49273 36.955C2.4629 36.9357 2.43306 36.9154 2.40387 36.8947C2.26136 36.7932 2.12965 36.6777 2.01031 36.5501C1.90875 36.4431 1.81607 36.3279 1.73292 36.2057C1.69134 36.1406 1.66151 36.0756 1.62501 36.0105C1.57708 35.9264 1.5336 35.8394 1.49488 35.7506C1.46314 35.6712 1.44315 35.5868 1.41839 35.5037C1.39078 35.4183 1.36761 35.3313 1.34952 35.2437C1.33587 35.1675 1.33302 35.0876 1.32603 35.0095C1.31429 34.9048 1.3089 34.7994 1.30985 34.6937C1.31905 34.4211 1.37142 34.1516 1.46505 33.8955C1.49171 33.8247 1.51646 33.7517 1.54947 33.6835C1.55741 33.6666 1.56788 33.6511 1.57613 33.6336C2.00587 32.8297 2.80535 32.2908 3.71148 32.1937C3.74417 32.1937 3.77655 32.1854 3.80701 32.1841C3.88382 32.1794 3.96507 32.1749 4.03648 32.1749H5.77384L13.8938 34.1075L12.2253 34.7749H11.7C10.6231 34.7749 9.75001 35.6481 9.75001 36.7249C9.75223 36.9468 9.79254 37.1667 9.86966 37.3749H3.90001C3.7356 37.374 3.5712 37.3575 3.40997 37.3254ZM11.7 37.3749C11.341 37.3749 11.05 37.0839 11.05 36.7249C11.05 36.366 11.341 36.0749 11.7 36.0749H12.35C12.4325 36.0749 12.5144 36.0594 12.5912 36.0289L17.1828 34.19C17.5122 34.0577 17.8814 34.0675 18.2035 34.2167C18.5253 34.3658 18.7716 34.641 18.884 34.9778C18.9903 35.297 19.3226 35.4824 19.6501 35.4049L22.75 34.6689V37.3749H11.7ZM24.05 37.3749V34.3595L33.2262 32.1749H34.9604C35.969 32.1689 36.9018 32.7091 37.3991 33.5867L37.4109 33.6076C37.4648 33.7146 37.5112 33.825 37.5499 33.9383C37.5727 34.0034 37.5946 34.0685 37.6149 34.1399C37.6346 34.2176 37.6505 34.2963 37.6622 34.376C37.6762 34.4658 37.6851 34.5563 37.6895 34.647C37.6946 34.7388 37.6946 34.8308 37.6895 34.9225C37.6844 35.0108 37.6765 35.0993 37.6629 35.1856C37.6489 35.271 37.6305 35.3558 37.6076 35.4392C37.5857 35.5271 37.5588 35.6141 37.5277 35.6992C37.4975 35.7772 37.4629 35.8537 37.4245 35.928C37.3852 36.0083 37.342 36.0864 37.2944 36.1619C37.2471 36.2368 37.1909 36.3069 37.1357 36.3777C37.0805 36.4488 37.0332 36.5117 36.9754 36.5729C36.9072 36.6415 36.8351 36.7069 36.7602 36.7678C36.7015 36.8167 36.6469 36.8687 36.5847 36.9122C36.4895 36.9757 36.3902 37.0325 36.2876 37.0823C36.2362 37.109 36.1886 37.1417 36.1353 37.1652C36.0026 37.2197 35.8655 37.2632 35.7252 37.295C35.6948 37.3029 35.6668 37.3165 35.6357 37.3229C35.4593 37.3591 35.28 37.3765 35.1 37.3749H24.05ZM34.9604 30.8749H33.3547L27.8948 27.0518C27.472 26.7607 27.1857 26.311 27.1004 25.8051L26.2066 20.8993C26.4507 19.9624 26.4564 18.9791 26.2228 18.0394L25.5319 15.2749H26C26.5589 15.2727 27.0991 15.4759 27.5184 15.8456C27.9392 16.2173 28.2099 16.7292 28.2801 17.2862L29.2551 25.1056C29.2732 25.249 29.3382 25.3823 29.4404 25.4845L33.3404 29.3845C33.4623 29.5064 33.6277 29.5749 33.8 29.5749H36.4C36.4698 29.5749 36.5393 29.5635 36.6053 29.5413L37.7 29.1773V30.4731L36.8967 30.8749H34.9604Z" fill="#222222"/>
</g>
<defs>
<clipPath id="clip0_1_278">
<rect width="39" height="39" fill="white"/>
</clipPath>
</defs>
</svg>
