<svg width="34" height="34" viewBox="0 0 34 34" fill="none" xmlns="http://www.w3.org/2000/svg">
<path d="M32.1566 25.6061C28.6184 23.9486 24.6553 24.1664 21.5209 25.9674C23.4919 24.3099 24.8625 20.1821 24.8625 15.2202C24.8625 9.83863 23.3059 7.54363 19.6509 7.54363C15.9959 7.54363 14.2959 9.91301 14.2959 15.2202C14.2959 21.2499 16.3147 26.0577 18.9869 26.6846V27.9808C18.9444 28.0233 18.9072 28.0711 18.8647 28.1189C16.8247 26.8546 14.45 26.0577 11.9425 25.8399C10.6888 25.7336 9.45094 25.7814 8.26626 25.9727V24.3258C11.4856 23.6989 13.9294 17.8924 13.9294 10.5877C13.9294 4.18613 12.0381 1.4502 7.59688 1.4502C3.15563 1.4502 1.44501 4.18613 1.44501 10.5877C1.44501 17.7596 3.80376 23.4918 6.93813 24.2886V26.2543C4.95126 26.7749 3.14501 27.7205 1.69469 29.0433C1.55657 29.1708 1.47688 29.3461 1.47688 29.5321V31.8749C1.47688 32.2414 1.77438 32.5389 2.14094 32.5389H31.8697C32.2363 32.5389 32.5338 32.2414 32.5338 31.8749V26.2064C32.5338 25.9461 32.385 25.7124 32.1513 25.6061H32.1566ZM15.6241 15.2202C15.6241 9.36051 17.7013 8.87176 19.6509 8.87176C21.6006 8.87176 23.5344 9.36051 23.5344 15.2202C23.5344 20.453 21.9566 24.3046 20.315 25.2183V18.2483L22.2806 16.2827C22.5409 16.0224 22.5409 15.6027 22.2806 15.3424C22.0203 15.0821 21.6006 15.0821 21.3403 15.3424L20.315 16.3677V13.4193C20.315 13.0527 20.0175 12.7552 19.6509 12.7552C19.2844 12.7552 18.9869 13.0527 18.9869 13.4193V13.6849L17.7491 12.4471C17.4888 12.1868 17.0691 12.1868 16.8088 12.4471C16.5484 12.7074 16.5484 13.1271 16.8088 13.3874L18.9869 15.5655V20.0068L17.935 18.9549C17.6747 18.6946 17.255 18.6946 16.9947 18.9549C16.7344 19.2152 16.7344 19.6349 16.9947 19.8952L18.9869 21.8874V25.2874C17.2975 24.5224 15.6241 20.6071 15.6241 15.2255V15.2202ZM2.77313 10.5877C2.77313 3.38395 5.15844 2.77832 7.59688 2.77832C10.0353 2.77832 12.6013 3.38395 12.6013 10.5877C12.6013 17.7914 10.455 22.2168 8.26626 22.9499V18.583L10.71 16.1393C10.9703 15.8789 10.9703 15.4593 10.71 15.1989C10.4497 14.9386 10.03 14.9386 9.76969 15.1989L8.26626 16.7024V10.9489L10.9384 8.27676C11.1988 8.01645 11.1988 7.59676 10.9384 7.33645C10.6781 7.07613 10.2584 7.07613 9.99813 7.33645L8.26626 9.06832V8.41488C8.26626 8.04832 7.96876 7.75082 7.60219 7.75082C7.23563 7.75082 6.93813 8.04832 6.93813 8.41488V12.3036L5.46126 10.8268C5.20094 10.5664 4.78126 10.5664 4.52094 10.8268C4.26063 11.0871 4.26063 11.5068 4.52094 11.7671L6.93282 14.1789V22.8755C4.80251 21.9564 2.76782 17.2549 2.76782 10.5824L2.77313 10.5877ZM2.80501 31.2108V29.8296C5.12126 27.8374 8.39376 26.8652 11.8256 27.1627C15.2416 27.4549 18.3813 28.9105 20.6338 31.2108H2.81032H2.80501ZM31.2056 31.2108H22.4028C21.6856 30.3343 20.8675 29.5533 19.9644 28.868C22.7694 25.8664 27.2425 24.9633 31.2056 26.6368V31.2108ZM27.6197 8.35645C28.7141 8.35645 29.6013 7.46926 29.6013 6.37488C29.6013 5.28051 28.7141 4.39332 27.6197 4.39332C26.5253 4.39332 25.6381 5.28051 25.6381 6.37488C25.6381 7.46926 26.5253 8.35645 27.6197 8.35645ZM27.6197 5.72145C27.9809 5.72145 28.2731 6.01363 28.2731 6.37488C28.2731 6.73613 27.9809 7.02832 27.6197 7.02832C27.2584 7.02832 26.9663 6.73613 26.9663 6.37488C26.9663 6.01363 27.2584 5.72145 27.6197 5.72145ZM26.9556 3.03863V2.12488C26.9556 1.75832 27.2531 1.46082 27.6197 1.46082C27.9863 1.46082 28.2838 1.75832 28.2838 2.12488V3.03863C28.2838 3.4052 27.9863 3.7027 27.6197 3.7027C27.2531 3.7027 26.9556 3.4052 26.9556 3.03863ZM29.5109 4.48363C29.2506 4.22332 29.2506 3.80363 29.5109 3.54332L30.1591 2.8952C30.4194 2.63488 30.8391 2.63488 31.0994 2.8952C31.3597 3.15551 31.3597 3.5752 31.0994 3.83551L30.4513 4.48363C30.3238 4.61113 30.1538 4.6802 29.9838 4.6802C29.8138 4.6802 29.6438 4.61645 29.5163 4.48363H29.5109ZM30.9559 5.71082H31.8697C32.2363 5.71082 32.5338 6.00832 32.5338 6.37488C32.5338 6.74145 32.2363 7.03895 31.8697 7.03895H30.9559C30.5894 7.03895 30.2919 6.74145 30.2919 6.37488C30.2919 6.00832 30.5894 5.71082 30.9559 5.71082ZM30.4459 8.26613L31.0941 8.91426C31.3544 9.17457 31.3544 9.59426 31.0941 9.85457C30.9666 9.98207 30.7966 10.0511 30.6266 10.0511C30.4566 10.0511 30.2866 9.98738 30.1591 9.85457L29.5109 9.20645C29.2506 8.94613 29.2506 8.52645 29.5109 8.26613C29.7713 8.00582 30.1909 8.00582 30.4513 8.26613H30.4459ZM27.6197 9.04707C27.9863 9.04707 28.2838 9.34457 28.2838 9.71113V10.6249C28.2838 10.9914 27.9863 11.2889 27.6197 11.2889C27.2531 11.2889 26.9556 10.9914 26.9556 10.6249V9.71113C26.9556 9.34457 27.2531 9.04707 27.6197 9.04707ZM25.7284 8.26613C25.9888 8.52645 25.9888 8.94613 25.7284 9.20645L25.0803 9.85457C24.9528 9.98207 24.7828 10.0511 24.6128 10.0511C24.4428 10.0511 24.2728 9.98738 24.1453 9.85457C23.885 9.59426 23.885 9.17457 24.1453 8.91426L24.7934 8.26613C25.0538 8.00582 25.4734 8.00582 25.7338 8.26613H25.7284ZM22.7056 6.37488C22.7056 6.00832 23.0031 5.71082 23.3697 5.71082H24.2834C24.65 5.71082 24.9475 6.00832 24.9475 6.37488C24.9475 6.74145 24.65 7.03895 24.2834 7.03895H23.3697C23.0031 7.03895 22.7056 6.74145 22.7056 6.37488ZM24.1453 3.84082C23.885 3.58051 23.885 3.16082 24.1453 2.90051C24.4056 2.6402 24.8253 2.6402 25.0856 2.90051L25.7338 3.54863C25.9941 3.80895 25.9941 4.22863 25.7338 4.48895C25.6063 4.61645 25.4363 4.68551 25.2663 4.68551C25.0963 4.68551 24.9263 4.62176 24.7988 4.48895L24.1506 3.84082H24.1453Z" fill="#222222"/>
</svg>
