<svg width="37" height="37" viewBox="0 0 37 37" fill="none" xmlns="http://www.w3.org/2000/svg">
<path d="M35.2478 22.2426H23.938C24.1463 22.1699 24.3546 22.0926 24.563 22.0098C24.5953 21.9989 24.6276 21.9871 24.6573 21.9725C25.6388 21.5769 26.606 21.0784 27.5355 20.4918C27.6091 20.5154 35.2487 20.5291 35.2487 20.5291C35.6699 20.5291 36.012 20.1825 36.012 19.7559C36.012 19.3294 35.6699 18.9828 35.2487 18.9828H29.6018C30.058 18.6008 30.4981 18.197 30.9166 17.7731C33.4077 15.25 34.6111 12.626 34.4934 9.97285C34.3902 7.64987 33.2901 5.41056 31.2246 3.3186C29.1591 1.22664 26.9482 0.112448 24.6546 0.00785054C22.0359 -0.110391 19.4442 1.10749 16.9531 3.63058C15.1857 5.42057 13.7704 7.58165 12.867 9.81914C12.8167 9.88826 10.7063 16.4788 9.79394 18.9837H0.763328C0.34215 18.9837 0 19.3303 0 19.7568C0 20.1834 0.34215 20.53 0.763328 20.53H9.21112C8.95877 21.1767 8.7172 21.7597 8.49539 22.2435H0.763328C0.34215 22.2435 0 22.5901 0 23.0167C0 23.4432 0.34215 23.7898 0.763328 23.7898H1.89844V29.2753L1.735 29.4408C1.59221 29.5854 1.51139 29.7828 1.51139 29.9874C1.51139 30.1921 1.59221 30.3895 1.735 30.5341L1.89844 30.6996V35.6885C1.89844 36.1151 2.24059 36.4616 2.66177 36.4616C3.08295 36.4616 3.4251 36.1151 3.4251 35.6885V32.2458L4.33391 33.1654C4.48298 33.3164 4.67785 33.3919 4.87362 33.3919C5.06939 33.3919 5.26427 33.3164 5.41334 33.1654L6.12279 32.4468C6.17308 32.4578 6.22516 32.4632 6.27904 32.4632H8.03649V35.6885C8.03649 36.1151 8.37864 36.4616 8.79982 36.4616C9.221 36.4616 9.56315 36.1151 9.56315 35.6885V32.4632H14.1736V35.6885C14.1736 36.1151 14.5158 36.4616 14.937 36.4616C15.3582 36.4616 15.7003 36.1151 15.7003 35.6885V32.4632H20.3108V35.6885C20.3108 36.1151 20.653 36.4616 21.0741 36.4616C21.4953 36.4616 21.8375 36.1151 21.8375 35.6885V32.4632H26.448V35.6885C26.448 36.1151 26.7901 36.4616 27.2113 36.4616C27.6325 36.4616 27.9746 36.1151 27.9746 35.6885V32.4632H32.5851V35.6885C32.5851 36.1151 32.9273 36.4616 33.3484 36.4616C33.7696 36.4616 34.1118 36.1151 34.1118 35.6885V23.7889H35.2478C35.669 23.7889 36.0111 23.4423 36.0111 23.0158C36.0111 22.5892 35.669 22.2426 35.2478 22.2426ZM11.1706 25.2542L9.53531 23.5979C10.2223 22.2918 11.1491 19.7978 11.9959 17.332C12.3156 18.7191 12.9523 19.9206 13.8917 20.872C14.7663 21.7569 15.8548 22.3773 17.1057 22.7202C14.7951 23.5233 12.4853 24.4356 11.1706 25.2542ZM14.1736 25.4788V26.2401H12.5464C13.0116 25.9927 13.5648 25.7371 14.1736 25.4788ZM15.7003 24.8694C16.6935 24.4929 17.7523 24.1236 18.7815 23.7816C18.8129 23.7852 18.8452 23.7889 18.8784 23.7889H20.3117V26.241H15.7012V24.8694H15.7003ZM21.8375 23.7889H26.448V26.241H21.8375V23.7889ZM18.0307 4.72203C20.1132 2.61279 22.2236 1.54499 24.307 1.54499C24.3995 1.54499 26.8314 1.35671 30.1434 4.41097C32.9587 7.00773 34.9685 11.48 29.8362 16.6789C28.1012 18.4362 26.0789 19.7459 24.0574 20.5482C23.7745 20.6273 22.8217 20.8965 21.5357 21.2858C20.8685 21.4104 20.2147 21.4741 19.5861 21.4741C17.7397 21.4741 16.1071 20.9283 14.972 19.7778C13.2523 18.036 12.9011 15.1418 13.7165 12.0866C13.8611 11.6264 13.9797 11.2453 14.0641 10.9715C14.8382 8.79317 16.1834 6.59297 18.0307 4.72203ZM3.4251 23.7889H7.31448L3.4251 27.7281V23.7889ZM4.87362 31.5255L3.4251 30.0593V29.9147L8.51963 24.7548L10.0391 26.2938L4.87362 31.5255ZM7.63328 30.9179L8.03649 30.5095V30.9179H7.63328ZM9.56315 30.9179V28.9633L10.7512 27.76C10.8141 27.7772 10.8806 27.7872 10.9488 27.7872H14.1745V30.9179H9.56315ZM15.7003 30.9179V27.7872H20.3108V30.9179H15.7003ZM21.8375 30.9179V27.7872H26.448V30.9179H21.8375ZM27.9746 30.9179V27.7872H32.5851V30.9179H27.9746ZM32.586 26.2401H27.9755V23.788H32.586V26.2401Z" fill="#222222"/>
</svg>
