<svg width="51" height="33" viewBox="0 0 51 33" fill="none" xmlns="http://www.w3.org/2000/svg">
<path d="M48.2282 28.6088C47.2282 29.8241 45.7582 30.5129 44.2082 30.5129C42.6482 30.5129 41.1782 29.814 40.1682 28.5885C39.9782 28.3555 39.6882 28.234 39.3982 28.234C39.1082 28.234 38.8181 28.3758 38.6282 28.5986C37.6282 29.814 36.1581 30.5027 34.6082 30.5027C33.0481 30.5027 31.5782 29.8039 30.5882 28.5986C30.3982 28.3657 30.1182 28.2239 29.8182 28.2239H29.8082C29.5082 28.2239 29.2282 28.3555 29.0382 28.5885C28.0382 29.8039 26.5782 30.5027 25.0082 30.5027C23.4482 30.5027 21.9782 29.8039 20.9482 28.5581C20.7582 28.3454 20.5182 28.2239 20.1882 28.234C19.8982 28.2441 19.6282 28.3758 19.4382 28.5986C18.4382 29.814 16.9682 30.5129 15.4082 30.5129C13.8482 30.5129 12.3782 29.814 11.3882 28.5986C11.3582 28.5682 11.3182 28.5277 11.2882 28.4973C11.0882 28.3049 10.8182 28.2138 10.5482 28.234C10.2782 28.2543 10.0182 28.3859 9.84815 28.5986C8.84815 29.814 7.37815 30.5129 5.81815 30.5129C4.25815 30.5129 2.78815 29.814 1.78815 28.5986C1.43815 28.1732 0.808153 28.1125 0.378153 28.467C-0.0418468 28.8214 -0.101847 29.4595 0.248153 29.895C1.62815 31.5763 3.65815 32.5385 5.80815 32.5385C7.59815 32.5385 9.28815 31.8802 10.6082 30.7053C11.9182 31.8903 13.6182 32.5486 15.4082 32.5486C17.1882 32.5486 18.8782 31.8903 20.2082 30.7053C21.5282 31.8903 23.2182 32.5486 25.0082 32.5486C26.8082 32.5486 28.5182 31.8802 29.8082 30.7154C31.1182 31.8903 32.8181 32.5588 34.6082 32.5588C36.3881 32.5588 38.0782 31.9004 39.4082 30.7154C40.7282 31.9004 42.4282 32.5689 44.2182 32.5689C46.3682 32.5689 48.3982 31.6067 49.7882 29.9153C50.1381 29.4899 50.0782 28.8518 49.6482 28.4973C49.2182 28.1125 48.5782 28.1732 48.2282 28.6088Z" fill="white"/>
<path d="M48.2282 21.3568C47.2282 22.5722 45.7582 23.2609 44.2082 23.2609C42.6482 23.2609 41.1782 22.5621 40.1682 21.3365C39.9782 21.1036 39.6882 20.9821 39.3982 20.9821C39.1082 20.9821 38.8181 21.1238 38.6282 21.3467C37.6282 22.5621 36.1581 23.2508 34.6082 23.2508C33.0481 23.2508 31.5782 22.5519 30.5882 21.3467C30.3982 21.1137 30.1182 20.9719 29.8182 20.9719C29.4682 20.9719 29.2282 21.1036 29.0382 21.3365C28.0382 22.5519 26.5782 23.2508 25.0082 23.2508C23.4482 23.2508 21.9782 22.5519 20.9482 21.3062C20.7582 21.0935 20.5182 20.9719 20.1882 20.9821C19.8982 20.9922 19.6282 21.1238 19.4382 21.3467C18.4382 22.5621 16.9682 23.2609 15.4082 23.2609C13.8482 23.2609 12.3782 22.5621 11.3882 21.3467C11.3582 21.3163 11.3182 21.2758 11.2882 21.2454C11.0882 21.0631 10.8182 20.9618 10.5482 20.9821C10.2782 21.0023 10.0182 21.134 9.84815 21.3467C8.84815 22.5621 7.37815 23.2609 5.81815 23.2609C4.25815 23.2609 2.78815 22.5621 1.78815 21.3467C1.43815 20.9213 0.808153 20.8605 0.378153 21.215C-0.0418468 21.5695 -0.101847 22.2076 0.248153 22.6431C1.62815 24.3244 3.65815 25.2865 5.80815 25.2865C7.59815 25.2865 9.28815 24.6282 10.6082 23.4533C11.9182 24.6383 13.6182 25.2967 15.4082 25.2967C17.1882 25.2967 18.8782 24.6383 20.2082 23.4533C21.5282 24.6383 23.2182 25.2967 25.0082 25.2967C26.8082 25.2967 28.5182 24.6282 29.8082 23.4635C31.1182 24.6383 32.8181 25.3068 34.6082 25.3068C36.3881 25.3068 38.0782 24.6485 39.4082 23.4635C40.7282 24.6485 42.4282 25.3169 44.2182 25.3169C46.3682 25.3169 48.3982 24.3548 49.7882 22.6633C50.1381 22.238 50.0782 21.5999 49.6482 21.2454C49.2182 20.8605 48.5782 20.9314 48.2282 21.3568Z" fill="white"/>
<path d="M48.2281 14.1051C47.2281 15.3205 45.7581 16.0092 44.2081 16.0092C42.6481 16.0092 41.1781 15.3104 40.1681 14.0849C39.9781 13.8519 39.6881 13.7304 39.3981 13.7304C39.1081 13.7304 38.8181 13.8722 38.6281 14.095C37.6281 15.3104 36.1581 15.9991 34.5981 15.9991C33.0781 15.9991 31.6481 15.3306 30.6781 14.2064L27.8381 5.6278C27.8281 5.58729 27.7981 5.56703 27.7781 5.52652C27.7581 5.47588 27.7481 5.42524 27.7181 5.38473L25.9981 2.78177C24.7981 0.968822 22.7281 -0.0946423 20.5781 0.00663989L14.1381 0.300358C12.6381 0.371256 11.4581 1.61703 11.4581 3.13626C11.4581 3.90601 11.7581 4.63524 12.3081 5.17203C12.8581 5.70883 13.5781 6.00255 14.3381 5.97216L21.0581 5.78985L22.0481 7.52178L10.9681 13.8114C10.8281 13.7506 10.6781 13.7203 10.5281 13.7304C10.2581 13.7506 9.99813 13.8823 9.82813 14.095C8.82813 15.3104 7.35813 16.0092 5.79813 16.0092C4.23813 16.0092 2.76813 15.3104 1.76813 14.095C1.41813 13.6696 0.788134 13.6088 0.358134 13.9633C-0.0618663 14.3178 -0.121866 14.9559 0.228134 15.3914C1.60813 17.0727 3.63813 18.0349 5.78813 18.0349C7.24813 18.0349 8.64813 17.5892 9.82813 16.779H9.83813L10.6981 16.2928C11.9981 17.4171 13.6481 18.045 15.3881 18.045C17.1681 18.045 18.8581 17.3867 20.1881 16.2017C21.5081 17.3867 23.1981 18.045 24.9881 18.045C26.7881 18.045 28.4981 17.3765 29.7881 16.2118C31.0981 17.3867 32.7981 18.0551 34.5881 18.0551C36.3681 18.0551 38.0581 17.3968 39.3881 16.2118C40.7081 17.3968 42.4081 18.0653 44.1981 18.0653C46.3481 18.0653 48.3781 17.1031 49.7681 15.4117C50.1181 14.9863 50.0581 14.3482 49.6281 13.9937C49.2181 13.619 48.5781 13.6797 48.2281 14.1051ZM24.9981 16.0092C23.4381 16.0092 21.9681 15.3104 20.9381 14.0646C20.7481 13.8519 20.5081 13.7203 20.1781 13.7405C19.8881 13.7506 19.6181 13.8823 19.4281 14.1051C18.4281 15.3205 16.9581 16.0194 15.3981 16.0194C14.3981 16.0194 13.4481 15.7358 12.6181 15.2091L23.9181 8.79794C23.9181 8.79794 23.9281 8.79794 23.9281 8.78781C24.0081 8.73717 24.0681 8.6764 24.1281 8.6055C24.1581 8.57512 24.1981 8.55486 24.2181 8.52448C24.2681 8.45358 24.2981 8.37255 24.3381 8.29153C24.3581 8.25101 24.3781 8.22063 24.3981 8.18011C24.4181 8.09909 24.4181 8.01806 24.4181 7.93704C24.4181 7.8864 24.4281 7.84588 24.4281 7.79524C24.4181 7.71422 24.3781 7.63319 24.3481 7.55217C24.3281 7.51165 24.3281 7.46101 24.3081 7.4205V7.41037L22.5081 4.27062C22.3281 3.94652 21.9681 3.73383 21.6181 3.76421L14.3081 3.96678C14.0681 3.96678 13.8781 3.88575 13.7281 3.73383C13.5681 3.5819 13.4881 3.36921 13.4881 3.14639C13.4881 2.71088 13.8281 2.34626 14.2581 2.326L20.6981 2.03228C22.1481 1.96139 23.5581 2.68049 24.3681 3.90601L26.0081 6.38742L28.6881 14.49C27.6781 15.4623 26.3781 16.0092 24.9981 16.0092Z" fill="white"/>
<path d="M30.2082 6.7824C30.2082 9.91202 32.7182 12.4542 35.8082 12.4542C38.8982 12.4542 41.4082 9.91202 41.4082 6.7824C41.4082 3.65278 38.8982 1.1106 35.8082 1.1106C32.7182 1.1106 30.2082 3.65278 30.2082 6.7824ZM35.8082 3.13624C37.7882 3.13624 39.4082 4.76688 39.4082 6.7824C39.4082 8.78779 37.7982 10.4286 35.8082 10.4286C33.8182 10.4286 32.2082 8.79791 32.2082 6.7824C32.2082 4.77701 33.8282 3.13624 35.8082 3.13624Z" fill="white"/>
</svg>
