<svg width="33" height="33" viewBox="0 0 33 33" fill="none" xmlns="http://www.w3.org/2000/svg">
<g clip-path="url(#clip0_7_42)">
<path fill-rule="evenodd" clip-rule="evenodd" d="M31.002 32.2266H1.99805C1.74023 32.2266 1.54688 32.0332 1.54688 31.7754V1.86914C1.54688 1.28906 2.0625 0.773438 2.64258 0.773438H30.3574C30.9375 0.773438 31.4531 1.28906 31.4531 1.86914V31.7754C31.4531 32.0332 31.2598 32.2266 31.002 32.2266ZM2.44922 31.3242H30.5508V1.86914C30.5508 1.74023 30.4863 1.67578 30.3574 1.67578H2.64258C2.51367 1.67578 2.44922 1.74023 2.44922 1.86914V31.3242Z" fill="black"/>
<path fill-rule="evenodd" clip-rule="evenodd" d="M24.4922 32.2266H8.50781C8.25 32.2266 8.05664 32.0332 8.05664 31.7754V7.41211C8.05664 7.1543 8.25 6.96094 8.50781 6.96094H24.4922C24.75 6.96094 24.9434 7.1543 24.9434 7.41211V31.7754C24.9434 32.0332 24.75 32.2266 24.4922 32.2266ZM8.95898 31.3242H24.041V7.86328H8.95898V31.3242Z" fill="black"/>
<path fill-rule="evenodd" clip-rule="evenodd" d="M16.5 32.2266C16.2422 32.2266 16.0488 32.0332 16.0488 31.7754V7.41211C16.0488 7.1543 16.2422 6.96094 16.5 6.96094C16.7578 6.96094 16.9512 7.1543 16.9512 7.41211V31.7754C16.9512 32.0332 16.7578 32.2266 16.5 32.2266Z" fill="black"/>
<path fill-rule="evenodd" clip-rule="evenodd" d="M32.5488 32.2266H0.451172C0.193359 32.2266 0 32.0332 0 31.7754C0 31.5176 0.193359 31.3242 0.451172 31.3242H32.5488C32.8066 31.3242 33 31.5176 33 31.7754C33 32.0332 32.8066 32.2266 32.5488 32.2266Z" fill="black"/>
<path fill-rule="evenodd" clip-rule="evenodd" d="M28.6816 17.209H26.8125C26.5547 17.209 26.3613 17.0156 26.3613 16.7578V13.2773H25.7812C25.5879 13.2773 25.459 13.2129 25.3945 13.0195C25.3301 12.8906 25.3301 12.6973 25.3945 12.5684L27.3926 9.86133C27.457 9.73242 27.5859 9.66797 27.7148 9.66797C27.9082 9.66797 28.0371 9.73242 28.1016 9.86133L30.0352 12.5684C30.0996 12.6328 30.1641 12.6973 30.1641 12.8262C30.1641 13.084 29.9707 13.2773 29.7129 13.2773H29.1328V16.7578C29.1328 17.0156 28.9395 17.209 28.6816 17.209ZM27.2637 16.3066H28.2305V12.8262C28.2305 12.5684 28.4238 12.375 28.6816 12.375H28.8105L27.7148 10.8926L26.6836 12.375H26.8125C27.0059 12.375 27.2637 12.5684 27.2637 12.8262V16.3066Z" fill="black"/>
<path fill-rule="evenodd" clip-rule="evenodd" d="M27.7148 26.4258C27.5859 26.4258 27.457 26.3613 27.3926 26.2324L25.3945 23.5254C25.3301 23.3965 25.3301 23.2676 25.3945 23.0742C25.459 22.9453 25.5879 22.8164 25.7812 22.8164H26.3613V19.3359C26.3613 19.0781 26.5547 18.8848 26.8125 18.8848H28.6816C28.9395 18.8848 29.1328 19.0781 29.1328 19.3359V22.8164H29.7129C29.8418 22.8164 30.0352 22.9453 30.0996 23.0742C30.1641 23.2676 30.1641 23.3965 30.0352 23.5254L28.1016 26.2324C28.0371 26.3613 27.9082 26.4258 27.7148 26.4258ZM26.6836 23.7188L27.7148 25.2012L28.8105 23.7188H28.6816C28.4238 23.7188 28.2305 23.5254 28.2305 23.2676V19.7871H27.2637V23.2676C27.2637 23.5254 27.0059 23.7188 26.8125 23.7188H26.6836Z" fill="black"/>
<path fill-rule="evenodd" clip-rule="evenodd" d="M23.332 5.86523H9.66797C9.41016 5.86523 9.2168 5.60742 9.2168 5.41406V3.48047C9.2168 3.22266 9.41016 3.0293 9.66797 3.0293H23.332C23.5898 3.0293 23.7832 3.22266 23.7832 3.48047V5.41406C23.7832 5.60742 23.5898 5.86523 23.332 5.86523ZM10.1191 4.96289H22.8809V3.93164H10.1191V4.96289Z" fill="black"/>
</g>
<defs>
<clipPath id="clip0_7_42">
<rect width="33" height="33" fill="white"/>
</clipPath>
</defs>
</svg>
