<svg width="36" height="36" viewBox="0 0 36 36" fill="none" xmlns="http://www.w3.org/2000/svg">
<path d="M16.7418 7.40232C17.0383 7.80535 17.4953 8.03768 17.9952 8.0387C17.9962 8.03921 17.9977 8.03921 17.9992 8.03921C18.4996 8.03921 18.9581 7.80789 19.2577 7.40436L20.64 5.54923C20.64 5.54872 20.6405 5.54821 20.6411 5.5477C20.9967 5.06774 21.0512 4.43799 20.7827 3.90504C20.5147 3.37362 19.9777 3.04346 19.3805 3.04346H16.6113C16.0178 3.04346 15.4828 3.37362 15.2153 3.90555C14.9468 4.43901 15.0008 5.06876 15.3569 5.54923L16.7418 7.40232ZM16.1472 4.37481C16.2379 4.19444 16.4116 4.08694 16.6113 4.08694H19.3805C19.674 4.08694 19.807 4.28819 19.8508 4.37481C19.942 4.55619 19.9242 4.76255 19.8029 4.92661L18.4206 6.78174C18.3197 6.91778 18.1664 6.99522 17.9992 6.99522C17.9987 6.99522 17.9982 6.99522 17.9977 6.99522C17.8321 6.99522 17.6808 6.91778 17.5799 6.78072L16.1946 4.92661C16.0733 4.76306 16.0555 4.5567 16.1472 4.37481Z" fill="#222222"/>
<path d="M16.1563 26.5916C16.3651 26.8004 16.7076 26.787 16.8921 26.5916C17.0884 26.3953 17.1099 26.0707 16.8921 25.8507C16.7041 25.6582 16.3494 25.6582 16.1563 25.8507C15.9758 26.0322 15.9344 26.3455 16.1563 26.5916Z" fill="#222222"/>
<path d="M19.1044 26.5916C19.3383 26.8049 19.6451 26.7866 19.8401 26.5916C20.0529 26.3788 20.044 26.0557 19.8401 25.8507C19.647 25.6582 19.2975 25.6582 19.1044 25.8507C18.9103 26.0553 18.8963 26.3609 19.1044 26.5916Z" fill="#222222"/>
<path d="M4.46765 29.4554C4.17927 29.4554 3.94591 29.6888 3.94591 29.9772V31.9831H2.95542C2.66704 31.9831 2.43369 32.2165 2.43369 32.5049V34.6958C2.43369 34.9841 2.66704 35.2175 2.95542 35.2175H33.0446C33.333 35.2175 33.5663 34.9841 33.5663 34.6958V32.5049C33.5663 32.2165 33.333 31.9831 33.0446 31.9831H32.4199V29.9772C32.4199 29.6888 32.1866 29.4554 31.8982 29.4554H31.6781V16.6963H31.8982C32.1866 16.6963 32.4199 16.4629 32.4199 16.1745V14.1706H33.0441C33.3325 14.1706 33.5658 13.9373 33.5658 13.6489V9.30479C33.5658 9.01641 33.3325 8.78305 33.0441 8.78305H26.5662C26.2548 4.32776 22.5222 0.782715 18.0003 0.782715C13.4784 0.782715 9.74517 4.32776 9.43386 8.78305H2.95593C2.66755 8.78305 2.43419 9.01641 2.43419 9.30479V13.6489C2.43419 13.9373 2.66755 14.1706 2.95593 14.1706H3.94591V16.1745C3.94591 16.4629 4.17927 16.6963 4.46765 16.6963H4.68776V29.4554H4.46765ZM9.25145 30.4989V31.9811H4.98939V30.4989H9.25145ZM32.5229 34.174H3.47716V33.0266H32.5229V34.174ZM21.7869 23.3219V30.2054H18.522V19.575C20.3634 19.8306 21.7869 21.411 21.7869 23.3219ZM17.4785 30.2054H14.2131V23.3219C14.2131 21.4109 15.6366 19.8305 17.4785 19.575V30.2054ZM23.0042 31.2489V31.9811H12.9958V31.2489H23.0042ZM31.3764 30.4989V31.9811H27.1144V30.4989H31.3764ZM27.8557 29.4529V16.6988H30.6346V29.4529H27.8557ZM31.3764 15.6528H27.1144V14.1706H31.3764V15.6528ZM18.0003 1.82619C21.9495 1.82619 25.2226 4.9016 25.5303 8.78305H24.3391V7.99688C24.3391 7.40228 24.0094 6.86678 23.4785 6.5998C22.9446 6.3318 22.3153 6.38581 21.8333 6.74246L19.9782 8.12426C19.7504 8.29354 19.5838 8.52448 19.4771 8.78305H16.5247C16.418 8.52464 16.2516 8.29386 16.0244 8.12477L14.1636 6.74297C13.6862 6.38632 13.057 6.33129 12.5225 6.59878C11.9891 6.86577 11.6579 7.40177 11.6579 7.99688V8.78305H10.4697C10.7774 4.9016 14.051 1.82619 18.0003 1.82619ZM23.2956 8.78305H20.8408L22.4559 7.5801C22.6195 7.45833 22.8263 7.43947 23.0093 7.5317C23.0954 7.575 23.2956 7.70748 23.2956 7.99688V8.78305ZM15.1613 8.78305H12.7013V7.99688C12.7013 7.79613 12.8094 7.62188 12.9902 7.5317C13.1716 7.43998 13.377 7.45782 13.542 7.58061L15.1613 8.78305ZM3.47767 9.82653H32.5223V13.1271C28.3087 13.1271 7.29114 13.1271 3.47767 13.1271V9.82653ZM9.25145 14.1706V15.6528H4.98939V14.1706H9.25145ZM8.51011 16.6988V29.4529H5.73124V16.6988H8.51011ZM9.55359 16.6963H9.77319C10.0616 16.6963 10.2949 16.4629 10.2949 16.1745V14.1706H26.0709V16.1745C26.0709 16.4629 26.3043 16.6963 26.5927 16.6963H26.8123V29.4554H26.5927C26.3043 29.4554 26.0709 29.6888 26.0709 29.9772V31.9831H24.0476V30.7272C24.0476 30.4388 23.8143 30.2054 23.5259 30.2054H22.8304V23.3219C22.8304 20.6582 20.6635 18.4913 18.0003 18.4913C15.3365 18.4913 13.1696 20.6582 13.1696 23.3219V30.2054H12.4741C12.1857 30.2054 11.9524 30.4388 11.9524 30.7272V31.9831H10.2949V29.9772C10.2949 29.6888 10.0616 29.4554 9.77319 29.4554H9.55359V16.6963Z" fill="#222222"/>
</svg>
