<svg width="34" height="34" viewBox="0 0 34 34" fill="none" xmlns="http://www.w3.org/2000/svg">
<g clip-path="url(#clip0_7_20)">
<path d="M7.98356 30.0544H6.85823V29.4918C6.85823 29.3145 6.77471 29.1478 6.63294 29.0415L4.38226 27.3534C4.19159 27.2103 3.93114 27.2032 3.7325 27.3356L2.04449 28.4609C1.78596 28.6335 1.71618 28.9827 1.88872 29.2415C2.06098 29.5 2.41045 29.5698 2.66898 29.3972L4.02565 28.4931L5.73289 29.7731V30.6171C5.73289 30.9278 5.98483 31.1798 6.29556 31.1798H7.98356C8.2943 31.1798 8.54623 30.9278 8.54623 30.6171C8.54623 30.3064 8.2943 30.0544 7.98356 30.0544Z" fill="#222222"/>
<path d="M4.51303 29.742C4.41935 29.6019 4.26796 29.5113 4.10037 29.4945C3.93278 29.4786 3.76656 29.5379 3.64705 29.6566L0.271037 33.0326C0.1246 33.1738 0.06608 33.3832 0.117457 33.5799C0.169108 33.7766 0.322688 33.9302 0.519402 33.9816C0.716116 34.0332 0.925194 33.9744 1.06669 33.8283L3.95751 30.9372L4.446 31.6688L3.64705 32.4677C3.43385 32.6884 3.43687 33.0395 3.65392 33.2565C3.87096 33.4736 4.22181 33.4766 4.4427 33.2634L5.56804 32.138C5.75761 31.9482 5.78701 31.6509 5.63837 31.4278L4.51303 29.742Z" fill="#222222"/>
<path d="M7.98356 27.2411C7.98356 27.8625 7.47968 28.3664 6.85822 28.3664C6.23675 28.3664 5.73288 27.8625 5.73288 27.2411C5.73288 26.6196 6.23675 26.1157 6.85822 26.1157C7.47968 26.1157 7.98356 26.6196 7.98356 27.2411Z" fill="#222222"/>
<path d="M10.2342 29.4918H25.1449C27.4756 29.4918 29.365 27.6024 29.365 25.2718C29.365 22.9411 27.4756 21.0518 25.1449 21.0518H18.1116V22.1771H25.1449C26.8541 22.1771 28.2396 23.5626 28.2396 25.2718C28.2396 26.9809 26.8541 28.3665 25.1449 28.3665H10.2342V29.4918Z" fill="#222222"/>
<path d="M25.4263 16.5503H8.82756C7.1184 16.5503 5.73288 15.1648 5.73288 13.4556C5.73288 11.7465 7.1184 10.3609 8.82756 10.3609H24.301V9.2356H8.82756C6.49694 9.2356 4.60754 11.125 4.60754 13.4556C4.60754 15.7862 6.49694 17.6756 8.82756 17.6756H25.4263C29.4642 17.6803 32.7363 20.9525 32.741 24.9903V25.553C32.7363 29.5909 29.4642 32.863 25.4263 32.8677H10.2342V33.993H25.4263C30.0854 33.9878 33.8608 30.212 33.8663 25.553V24.9903C33.8608 20.3313 30.0854 16.5555 25.4263 16.5503Z" fill="#222222"/>
<path d="M9.10889 4.73438H24.301V5.85971H9.10889V4.73438Z" fill="#222222"/>
<path d="M10.2342 21.0517H8.54624C4.50837 21.0471 1.23621 17.7749 1.23154 13.737V13.1744C1.23126 11.8905 1.56865 10.6292 2.20989 9.51701L1.23648 8.95435C0.495784 10.2374 0.105927 11.6927 0.106201 13.1744V13.737C0.111421 18.3961 3.88691 22.1718 8.54624 22.1771H10.2342V21.0517Z" fill="#222222"/>
<path d="M16.4236 23.8651H17.5602L15.0974 21.6144H17.2297L14.1504 18.5681L11.1368 21.6144H13.222L10.8082 23.8651H13.222L10.8082 26.1158H13.6102V27.8038H14.7356V26.1158H17.5602L15.0974 23.8651H16.4236Z" fill="#222222"/>
<path d="M6.29554 5.297H7.43214L4.96937 3.04633H7.10163L4.02234 0L1.0087 3.04633H3.09399L0.680115 5.297H3.09399L0.680115 7.54768H3.4822V9.23568H4.60753V7.54768H7.43214L4.96937 5.297H6.29554Z" fill="#222222"/>
<path d="M29.365 5.85962H30.4903V6.98496H29.365V5.85962Z" fill="#222222"/>
<path d="M29.365 3.60889H30.4903V4.73422H29.365V3.60889Z" fill="#222222"/>
<path d="M31.6157 3.60889H32.741V4.73422H31.6157V3.60889Z" fill="#222222"/>
<path d="M31.6157 5.85962H32.741V6.98496H31.6157V5.85962Z" fill="#222222"/>
<path d="M27.1143 3.45315C27.5553 3.19846 27.7704 2.6792 27.6385 2.18714C27.5066 1.69535 27.061 1.35303 26.5516 1.35303C26.0423 1.35303 25.5964 1.69535 25.4645 2.18714C25.3326 2.6792 25.5477 3.19846 25.989 3.45315V13.737H24.8636V14.8623H28.2396V13.737H27.1143V6.98494H28.2396V5.8596H27.1143V4.73426H28.2396V3.60892H27.1143V3.45315Z" fill="#222222"/>
</g>
<defs>
<clipPath id="clip0_7_20">
<rect width="34" height="34" fill="white"/>
</clipPath>
</defs>
</svg>
