<svg width="34" height="34" viewBox="0 0 34 34" fill="none" xmlns="http://www.w3.org/2000/svg">
<path d="M0.784637 16.3069H33.2154C33.6012 16.3069 33.9128 16.6186 33.9128 17.0043C33.9128 17.3901 33.6012 17.7018 33.2154 17.7018H2.46938L6.70194 21.9343C6.97438 22.2068 6.97438 22.6492 6.70194 22.9216C6.42951 23.1941 5.98707 23.1941 5.71463 22.9216L0.289894 17.4969C0.0893822 17.2964 0.0305328 16.9978 0.139507 16.7363C0.248482 16.4769 0.503483 16.3069 0.784637 16.3069Z" fill="black"/>
<path d="M6.21595 10.8756C6.39467 10.8756 6.57339 10.9431 6.70851 11.0805C6.98095 11.3529 6.98095 11.7953 6.70851 12.0678L1.27723 17.499C1.0048 17.7715 0.562361 17.7715 0.289925 17.499C0.017489 17.2266 0.017489 16.7842 0.289925 16.5117L5.72121 11.0805C5.85851 10.9431 6.03723 10.8756 6.21595 10.8756Z" fill="black"/>
</svg>
