<svg width="34" height="34" viewBox="0 0 34 34" fill="none" xmlns="http://www.w3.org/2000/svg">
<path d="M33.2154 17.6931H0.784594C0.398825 17.6931 0.0871582 17.3814 0.0871582 16.9957C0.0871582 16.6099 0.398825 16.2982 0.784594 16.2982H31.5306L27.2981 12.0657C27.0256 11.7932 27.0256 11.3508 27.2981 11.0784C27.5705 10.8059 28.0129 10.8059 28.2854 11.0784L33.7101 16.5031C33.9106 16.7036 33.9695 17.0022 33.8605 17.2637C33.7515 17.5231 33.4965 17.6931 33.2154 17.6931Z" fill="black"/>
<path d="M27.7841 23.1244C27.6053 23.1244 27.4266 23.0569 27.2915 22.9195C27.019 22.6471 27.019 22.2047 27.2915 21.9322L32.7228 16.501C32.9952 16.2285 33.4376 16.2285 33.7101 16.501C33.9825 16.7734 33.9825 17.2158 33.7101 17.4883L28.2788 22.9195C28.1415 23.0569 27.9628 23.1244 27.7841 23.1244Z" fill="black"/>
</svg>
